<?xml version="1.0" encoding="utf-8"?>
<!-- Generator: Adobe Illustrator 22.1.0, SVG Export Plug-In . SVG Version: 6.00 Build 0)  -->
<svg version="1.1" id="Layer_1" xmlns="http://www.w3.org/2000/svg" xmlns:xlink="http://www.w3.org/1999/xlink" x="0px" y="0px"
	 viewBox="0 0 512 512" style="enable-background:new 0 0 512 512;" xml:space="preserve">
<style type="text/css">
	.st0{fill:#00BF3B;}
	.st1{fill:#FFFFFF;}
	.st2{fill:#009F43;}
	.st3{fill:#EAE0EA;}
</style>
<path class="st0" d="M453.3,334H58.7C26.3,334,0,350.4,0,370.6v59.9C0,450.6,26.3,467,58.7,467h394.7c32.4,0,58.7-16.4,58.7-36.6
	v-59.9C512,350.4,485.7,334,453.3,334z"/>
<path class="st1" d="M270.7,301.6l87.1-93.8c5.4-5.9,6.9-14.4,3.7-21.7c-3.2-7.3-10.4-12.1-18.4-12.1h-60.3v-134
	c0-14.8-12-26.8-26.8-26.8c-14.8,0-26.8,12-26.8,26.8v134h-60.3c-8,0-15.2,4.7-18.4,12.1c-1.1,2.6-1.7,5.3-1.7,8
	c0,5,1.8,9.9,5.4,13.7l87.1,93.8c3.8,4.1,9.2,6.4,14.7,6.4C261.6,308,266.9,305.7,270.7,301.6L270.7,301.6z"/>
<path class="st2" d="M256,334H58.7C26.3,334,0,350.4,0,370.6v59.9C0,450.6,26.3,467,58.7,467H256V334z"/>
<path class="st3" d="M256,13.3c-14.8,0-26.8,12-26.8,26.8v134h-60.3c-8,0-15.2,4.7-18.4,12.1c-1.1,2.6-1.7,5.3-1.7,8
	c0,5,1.8,9.9,5.4,13.7l87.1,93.8c3.8,4.1,9.2,6.4,14.7,6.4V13.3z"/>
</svg>
