<svg id="Capa_1" enable-background="new 0 0 512 512" height="512" viewBox="0 0 512 512" width="512" xmlns="http://www.w3.org/2000/svg"><g><g><g><path d="m256 0c-141.61 0-256 114.43-256 256 0 141.61 114.43 256 256 256 141.61 0 256-114.43 256-256 0-141.61-114.43-256-256-256z" fill="#ffda2d"/></g></g><path d="m512 256c0 141.57-114.39 256-256 256v-512c141.57 0 256 114.39 256 256z" fill="#fdbf00"/><g><path d="m91 241v15c0 90.98 74.02 165 165 165s165-74.02 165-165v-15z" fill="#ff637b"/></g><path d="m421 241v15c0 90.98-74.02 165-165 165v-180z" fill="#e63950"/><g><path d="m166 211c-24.813 0-45-20.187-45-45s20.187-45 45-45 45 20.187 45 45-20.187 45-45 45z" fill="#596c76"/></g><g><path d="m346 211c-24.813 0-45-20.187-45-45s20.187-45 45-45 45 20.187 45 45-20.187 45-45 45z" fill="#465a61"/></g></g></svg>