<svg id="Layer_1" data-name="Layer 1" xmlns="http://www.w3.org/2000/svg" viewBox="0 0 421.67 192.33"><defs><style>.cls-1{fill:#d8a6cc;}.cls-2{fill:#ebcbe1;}.cls-3{fill:#65c18f;}.cls-4{fill:#84cba8;}.cls-5{fill:#bcbec0;}.cls-6{fill:none;stroke:#ddd;stroke-miterlimit:10;stroke-width:5px;}</style></defs><title>flower2</title><path class="cls-1" d="M269.67,292.41a69.54,69.54,0,0,1-8.88,8.87c-.05.05-2-1.71-3-2.59-26.05-24.16-25-61.29,3-84.46,25.7,21.28,28.61,54.25,8.9,78.18Z" transform="translate(-51.17 -168.13)"/><path class="cls-2" d="M282.17,251.67a55.13,55.13,0,0,1-12.5,28.55,70.25,70.25,0,0,1-8.88,8.87s-18.59-13.73-21.42-37.42c1.63-13.65,8.74-27,21.4-37.44,11.67,9.66,19.65,22.65,21.4,37.44Z" transform="translate(-51.17 -168.13)"/><path class="cls-3" d="M260.77,300.86a40.55,40.55,0,0,1-5.51,5.52c-.15,0-12,11.24-29.1,7.05a36.54,36.54,0,0,1-19.37-12.57,39.78,39.78,0,0,1,8.76-7.92c13.77-9,31.33-7.14,43.6,6.08C260.32,300.27,260.7,300.79,260.77,300.86Z" transform="translate(-51.17 -168.13)"/><path class="cls-4" d="M255,295.11c-12.92,15.63-33.19,17.83-48.16,5.72C219.79,285.18,240,283,255,295.11Z" transform="translate(-51.17 -168.13)"/><path class="cls-3" d="M314.75,300.86a39.86,39.86,0,0,1-5.51,5.52c-.14,0-12,11.24-29.1,7.05a36.61,36.61,0,0,1-19.37-12.57c6.8-8.22,16.3-13.5,27-13.5,13.38,0,21.08,8,21.48,8a39.75,39.75,0,0,1,5.51,5.52Z" transform="translate(-51.17 -168.13)"/><path class="cls-4" d="M314.75,300.86c-14.95,12.29-35.35,10.27-48.44-5.54,13.93-11.5,33.41-10.75,46.83,3.7.67.72,1.63,1.82,1.61,1.84Z" transform="translate(-51.17 -168.13)"/><path class="cls-1" d="M248,228.36a55.15,55.15,0,0,0-7.51,17.11A55.83,55.83,0,0,0,224.2,240,63.78,63.78,0,0,1,230,220.64,64.19,64.19,0,0,1,248,228.36Z" transform="translate(-51.17 -168.13)"/><path class="cls-1" d="M297.35,240.14a55.32,55.32,0,0,0-16.23,5.62,54.7,54.7,0,0,0-7.58-17.4,64.19,64.19,0,0,1,18-7.72A63.68,63.68,0,0,1,297.35,240.14Z" transform="translate(-51.17 -168.13)"/><path class="cls-1" d="M261.08,301.28a1.34,1.34,0,0,1-.29,0c18.17-15.07,25-36,20.33-55.52a59.72,59.72,0,0,1,33.94-6.34C318.37,274.68,294.34,301,261.08,301.28Z" transform="translate(-51.17 -168.13)"/><path class="cls-2" d="M267.45,295c.91-1,2.17-2.49,2.22-2.55,0-.26,18-19.22,11.45-46.65a59.33,59.33,0,0,1,32.5-6.46c.38,29.19-18.54,51.54-46.17,55.66Z" transform="translate(-51.17 -168.13)"/><path class="cls-1" d="M260.75,301.28c-33.17-.76-56.95-26.79-53.66-61.86a59.86,59.86,0,0,1,33.4,6.05C235.3,266.68,243.85,287.24,260.75,301.28Z" transform="translate(-51.17 -168.13)"/><path class="cls-2" d="M252.63,293.31c-25.76-4.77-43.91-25.84-44.1-54a59.52,59.52,0,0,1,32,6.17C236.14,263.23,241.56,280.47,252.63,293.31Z" transform="translate(-51.17 -168.13)"/><path class="cls-1" d="M260.77,247.31a1.74,1.74,0,0,0,1.74-1.74v-7a1.74,1.74,0,1,0-3.48,0v7a1.74,1.74,0,0,0,1.74,1.74Z" transform="translate(-51.17 -168.13)"/><path class="cls-1" d="M302,254.77a1.74,1.74,0,0,0-2.46.15l-6.12,6.91a1.75,1.75,0,0,0,1.3,2.9,1.72,1.72,0,0,0,1.3-.59l6.12-6.91a1.74,1.74,0,0,0-.14-2.46Z" transform="translate(-51.17 -168.13)"/><path class="cls-1" d="M291.53,266.57a1.74,1.74,0,0,0-2.46.15l-26.56,30V256a1.74,1.74,0,0,0-3.48,0V296.7l-26.56-30a1.74,1.74,0,0,0-2.61,2.31l29.52,33.32a1.77,1.77,0,0,0,1,.64,1.93,1.93,0,0,0,2.37-1.29L291.68,269a1.75,1.75,0,0,0-.15-2.46Z" transform="translate(-51.17 -168.13)"/><path class="cls-1" d="M222,254.92a1.74,1.74,0,0,0-2.61,2.31l6.12,6.91a1.74,1.74,0,1,0,2.61-2.31Z" transform="translate(-51.17 -168.13)"/><path class="cls-5" d="M425.41,262.2,401.5,238.3a2.93,2.93,0,0,0-4.15,0l-1.76,1.76a2.93,2.93,0,0,0,0,4.15l20.07,20.07-20.1,20.1a2.92,2.92,0,0,0-.85,2.08,3,3,0,0,0,.85,2.08l1.77,1.76a3,3,0,0,0,4.15,0l23.93-23.93a3,3,0,0,0,0-4.17Z" transform="translate(-51.17 -168.13)"/><path class="cls-5" d="M96.27,262.63l23.9-23.9a2.95,2.95,0,0,1,4.16,0l1.76,1.76a2.93,2.93,0,0,1,0,4.15L106,264.71l20.09,20.1a2.95,2.95,0,0,1,0,4.16l-1.76,1.76a3,3,0,0,1-4.15,0L96.27,266.8a3,3,0,0,1,0-4.17Z" transform="translate(-51.17 -168.13)"/><rect class="cls-6" x="2.5" y="2.5" width="416.67" height="187.33" rx="23.33" ry="23.33"/><line class="cls-6" x1="121.83" y1="22.87" x2="121.83" y2="169.54"/><line class="cls-6" x1="293.2" y1="22.87" x2="293.2" y2="169.54"/></svg>