<?xml version="1.0" encoding="iso-8859-1"?>
<!-- Generator: Adobe Illustrator 19.0.0, SVG Export Plug-In . SVG Version: 6.00 Build 0)  -->
<svg version="1.1" id="Capa_1" xmlns="http://www.w3.org/2000/svg" xmlns:xlink="http://www.w3.org/1999/xlink" x="0px" y="0px"
	 viewBox="0 0 508.236 508.236" style="enable-background:new 0 0 508.236 508.236;" xml:space="preserve">
<path style="fill:#90A4AE;" d="M113.669,508.236c-39.199,0.023-70.994-31.736-71.017-70.935
	c-0.011-18.843,7.472-36.917,20.798-50.238l32-32c4.237-4.093,10.99-3.976,15.083,0.262c3.993,4.134,3.993,10.687,0,14.821l-32,32
	c-19.399,19.399-19.399,50.852,0,70.251c19.399,19.399,50.851,19.399,70.251,0l160-160c28.092-26.838,72.324-26.838,100.416,0
	c27.686,27.747,27.686,72.669,0,100.416l-74.667,74.667c-4.237,4.093-10.99,3.975-15.083-0.262c-3.993-4.134-3.993-10.687,0-14.821
	l74.667-74.667c19.358-19.416,19.358-50.834,0-70.251c-19.655-18.771-50.595-18.771-70.251,0l-160,160
	C150.562,500.8,132.497,508.27,113.669,508.236z"/>
<path style="fill:#CFD8DC;" d="M355.888,216.375L249.221,109.708c-2.193-2.218-5.255-3.35-8.363-3.093
	c-3.092,0.223-5.935,1.78-7.787,4.267l-4.928,6.741C177.388,189.29,122.4,257.864,63.472,322.977
	c-4.164,4.165-4.164,10.917,0,15.083l64,64c4.165,4.164,10.917,4.164,15.083,0c65.109-58.927,133.683-113.909,205.355-164.651
	l6.741-4.949c4.747-3.488,5.768-10.164,2.28-14.912c-0.317-0.431-0.665-0.838-1.043-1.216L355.888,216.375z"/>
<path style="fill:#607D8B;" d="M220.336,255.927c-5.891,0.011-10.675-4.757-10.686-10.648c-0.005-2.84,1.123-5.565,3.134-7.571
	l21.333-21.333c4.237-4.092,10.99-3.975,15.083,0.262c3.992,4.134,3.992,10.687,0,14.82l-21.333,21.333
	C225.871,254.793,223.162,255.92,220.336,255.927z"/>
<path style="fill:#455A64;" d="M465.584,117.345c0.035,27.394-9.469,53.945-26.88,75.093c-4.745,5.35-9.879,10.341-15.36,14.933
	c-49.688,41.505-123.615,34.871-165.12-14.818c-36.344-43.51-36.344-106.792,0-150.302c4.592-5.482,9.583-10.616,14.933-15.36
	C323.25-14.44,397.364-7.338,438.695,42.755C456.023,63.756,465.527,90.119,465.584,117.345z"/>
<path style="fill:#CFD8DC;" d="M438.704,192.439c-4.745,5.35-9.879,10.341-15.36,14.933l-165.12-165.12
	c4.592-5.482,9.583-10.616,14.933-15.36L438.704,192.439z"/>
<g>
</g>
<g>
</g>
<g>
</g>
<g>
</g>
<g>
</g>
<g>
</g>
<g>
</g>
<g>
</g>
<g>
</g>
<g>
</g>
<g>
</g>
<g>
</g>
<g>
</g>
<g>
</g>
<g>
</g>
</svg>
