<?xml version="1.0" encoding="utf-8"?>
<!-- Generator: Adobe Illustrator 22.1.0, SVG Export Plug-In . SVG Version: 6.00 Build 0)  -->
<svg version="1.1" id="Capa_1" xmlns="http://www.w3.org/2000/svg" xmlns:xlink="http://www.w3.org/1999/xlink" x="0px" y="0px"
	 viewBox="0 0 320 320" style="enable-background:new 0 0 320 320;" xml:space="preserve">
<style type="text/css">
	.st0{fill:#FFFFFF;}
</style>
<g>
	<path class="st0" d="M112,0H16C7.2,0,0,7.2,0,16v288c0,8.8,7.2,16,16,16h96c8.8,0,16-7.2,16-16V16C128,7.2,120.8,0,112,0z"/>
	<path class="st0" d="M304,0h-96c-8.8,0-16,7.2-16,16v288c0,8.8,7.2,16,16,16h96c8.8,0,16-7.2,16-16V16C320,7.2,312.8,0,304,0z"/>
</g>
</svg>
