<svg id="Capa_1" enable-background="new 0 0 512 512" height="512" viewBox="0 0 512 512" width="512" xmlns="http://www.w3.org/2000/svg"><g><path d="m467.714 344.275-14.056-18.738c9.581-16.065 16.718-33.27 21.317-51.376l24.15-3.325c7.385-1.046 12.875-7.385 12.875-14.842v-59.994c.021-7.478-5.479-13.828-12.875-14.843l-24.14-3.315c-4.599-18.106-11.736-35.31-21.327-51.386l14.056-18.738c4.475-5.966 3.884-14.325-1.398-19.608l-21.213-21.213-21.213-21.213c-5.283-5.283-13.641-5.873-19.608-1.398l-18.738 14.056c-16.076-9.592-33.28-16.728-51.386-21.327l-3.315-24.14c-1.025-7.427-7.375-12.906-14.843-12.875h-59.994c-7.458 0-13.797 5.49-14.843 12.875l-3.325 24.15c-18.106 4.599-35.31 11.736-51.376 21.317l-18.738-14.056c-5.966-4.475-14.325-3.884-19.608 1.398l-42.426 42.426c-5.283 5.283-5.873 13.641-1.398 19.608l14.056 18.738c-8.828 14.765-16.454 32.219-21.327 51.386l-23.14 3.315c-7.385 1.046-12.875 7.385-12.875 14.843v59.994c-.021 7.479 5.479 13.807 12.875 14.843l23.15 3.325c8.362 32.791 26.3 64.936 51.086 89.721 24.835 24.835 57.188 42.79 89.721 51.086l3.325 23.15c1.025 7.365 7.385 12.875 14.843 12.875h59.994c7.458 0 13.797-5.49 14.843-12.875l3.315-23.14c16.531-4.203 35.145-11.617 51.386-21.327l18.738 14.056c5.966 4.475 14.325 3.884 19.608-1.398l42.426-42.426c5.282-5.284 5.872-13.643 1.398-19.609z" fill="#4d6699"/><path d="m241.163 438.118c1.025 7.365 7.385 12.875 14.843 12.875h59.994c7.458 0 13.797-5.49 14.843-12.875l3.315-23.14c16.531-4.203 35.145-11.617 51.386-21.327l18.738 14.056c5.966 4.475 14.325 3.884 19.608-1.398l42.426-42.426c5.283-5.283 5.873-13.641 1.398-19.608l-14.056-18.738c9.581-16.065 16.718-33.27 21.317-51.376l24.15-3.325c7.385-1.046 12.875-7.385 12.875-14.842v-59.994c.021-7.478-5.479-13.828-12.875-14.843l-24.14-3.315c-4.599-18.106-11.736-35.31-21.327-51.386l14.056-18.738c4.475-5.966 3.884-14.325-1.398-19.608l-21.213-21.213-296.986 296.986c24.835 24.835 57.188 42.79 89.721 51.086z" fill="#404b80"/><path d="m416.017 191.505c-1.357-5.169-5.397-9.229-10.586-10.648-5.189-1.398-10.731.083-14.522 3.874l-66.529 66.529-47.73-15.91-15.91-47.73 66.529-66.529c3.791-3.791 5.272-9.333 3.874-14.522s-5.459-9.229-10.648-10.586c-46.549-12.305-96.34.943-129.952 34.554-31.561 31.561-45.161 77.374-36.522 121.375l-149.624 149.625c-5.863 5.863-5.863 15.351 0 21.213l31.82 31.82 31.82-10.607-10.607 31.82 31.82 31.82c5.863 5.863 15.351 5.863 21.213 0l149.625-149.624c44.001 8.639 89.814-4.961 121.375-36.522 33.611-33.613 46.859-83.403 34.554-129.952z" fill="#e6f7ff"/><path d="m89.25 507.603c5.863 5.863 15.351 5.863 21.213 0l149.625-149.624c44.001 8.639 89.814-4.961 121.375-36.522 33.612-33.612 46.86-83.403 34.554-129.952-1.357-5.169-5.397-9.229-10.586-10.648-5.189-1.398-10.731.083-14.522 3.874l-66.529 66.529-47.73-15.91-208.613 208.613-10.607 31.82z" fill="#cde2ff"/><path d="m211.757 300.243c-5.863-5.863-15.351-5.863-21.213 0l-154.327 154.327 10.607 10.607 10.607 10.607 154.327-154.327c5.862-5.863 5.862-15.351-.001-21.214z" fill="#cde2ff"/><path d="m211.757 321.456c5.863-5.863 5.863-15.351 0-21.213l-164.934 164.934 10.607 10.607z" fill="#b3ccff"/></g></svg>