<svg id="Layer_1" data-name="Layer 1" xmlns="http://www.w3.org/2000/svg" viewBox="0 0 500 126.72"><defs><style>.cls-1,.cls-3{fill:#fdd92e;}.cls-1{opacity:0.1;}.cls-2{opacity:0.17;}.cls-4{fill:#fabe13;}.cls-5{fill:#f7911e;}</style></defs><title>star-bg</title><rect class="cls-1" width="500" height="126.72"/><g class="cls-2"><path class="cls-3" d="M49.62,78.19a1.08,1.08,0,0,0-1-.69l-12.42.11-5.4-10.94a1.18,1.18,0,0,0-2.07.15L24.93,78.43,12.71,80.11a1.14,1.14,0,0,0-1,.83,1.11,1.11,0,0,0,.44,1.15l10,7.06-2.21,12a1.1,1.1,0,0,0,.5,1.1,1.13,1.13,0,0,0,1.25,0L31.82,95l10.9,5.71a1.18,1.18,0,0,0,1.27-.14,1.08,1.08,0,0,0,.34-1.16L40.4,87.83l9-8.44A1,1,0,0,0,49.62,78.19Z" transform="translate(0 -43.81)"/><path class="cls-4" d="M49.37,79.39l-9,8.44,3.93,11.53a1.08,1.08,0,0,1-.34,1.16,1.18,1.18,0,0,1-1.27.14L31.82,95l-2.1-28.82a1.11,1.11,0,0,1,1.05.54l5.4,10.94,12.42-.11a1.08,1.08,0,0,1,1,.69A1,1,0,0,1,49.37,79.39Z" transform="translate(0 -43.81)"/><path class="cls-4" d="M38.46,82.65a1.14,1.14,0,0,0-1-.69l-4,.06-1.76-3.57a1.18,1.18,0,0,0-2.07.15l-1.22,3.78-4,.54a1.1,1.1,0,0,0-.92.83,1.07,1.07,0,0,0,.42,1.15l3.3,2.3-.73,3.88a1.09,1.09,0,0,0,.51,1.12,1.14,1.14,0,0,0,1.25,0l3.29-2.37L35,91.66a1.13,1.13,0,0,0,1.24-.14,1.09,1.09,0,0,0,.34-1.18L35.28,86.6l2.91-2.75A1.1,1.1,0,0,0,38.46,82.65Z" transform="translate(0 -43.81)"/><path class="cls-5" d="M38.19,83.85,35.28,86.6l1.28,3.74a1.09,1.09,0,0,1-.34,1.18,1.13,1.13,0,0,1-1.24.14l-3.54-1.87-.86-11.88a1.07,1.07,0,0,1,1,.54L33.38,82l4-.06a1.14,1.14,0,0,1,1,.69A1.1,1.1,0,0,1,38.19,83.85Z" transform="translate(0 -43.81)"/></g><g class="cls-2"><path class="cls-3" d="M153.24,96.68a1.08,1.08,0,0,0-1.1.58l-5.82,11-12.19-.46a1.1,1.1,0,0,0-1,.66,1.12,1.12,0,0,0,.11,1.23l8.42,8.84-4.35,11.55a1.17,1.17,0,0,0,.28,1.23,1.11,1.11,0,0,0,1.22.16l11-5.45,9.47,7.65a1.07,1.07,0,0,0,1.21.08,1.1,1.1,0,0,0,.55-1.12l-1.56-12.28,10.21-6.87a1.18,1.18,0,0,0,.48-1.18,1.06,1.06,0,0,0-.86-.85l-12-2-3.15-11.91A1,1,0,0,0,153.24,96.68Z" transform="translate(0 -43.81)"/><path class="cls-4" d="M154.17,97.47l3.15,11.91,12,2a1.06,1.06,0,0,1,.86.85,1.18,1.18,0,0,1-.48,1.18l-10.21,6.87-26.34-11.89a1.1,1.1,0,0,1,1-.66l12.19.46,5.82-11a1.09,1.09,0,0,1,1.1-.58A1,1,0,0,1,154.17,97.47Z" transform="translate(0 -43.81)"/><path class="cls-4" d="M151.85,108.62a1.11,1.11,0,0,0-1.1.58l-1.88,3.58-4-.15a1.08,1.08,0,0,0-1,.66,1.05,1.05,0,0,0,.12,1.23l2.74,2.88-1.44,3.78a1.14,1.14,0,0,0,.29,1.21,1.11,1.11,0,0,0,1.22.18l3.59-1.81,3.07,2.49a1.12,1.12,0,0,0,1.23.09,1.15,1.15,0,0,0,.55-1.13l-.51-4,3.33-2.22a1.13,1.13,0,0,0,.47-1.15,1.11,1.11,0,0,0-.88-.87l-3.89-.65-1-3.87A1.09,1.09,0,0,0,151.85,108.62Z" transform="translate(0 -43.81)"/><path class="cls-5" d="M152.77,109.43l1,3.87,3.89.65a1.11,1.11,0,0,1,.88.87,1.13,1.13,0,0,1-.47,1.15l-3.33,2.22-10.86-4.9a1.08,1.08,0,0,1,1-.66l4,.15,1.88-3.58a1.11,1.11,0,0,1,1.1-.58A1.09,1.09,0,0,1,152.77,109.43Z" transform="translate(0 -43.81)"/></g><g class="cls-2"><path class="cls-3" d="M271.57,131.83a1.11,1.11,0,0,0-1.06-.66l-12.41.54L252.33,121a1.1,1.1,0,0,0-1.06-.5,1.13,1.13,0,0,0-1,.72L246.9,132.9,234.74,135a1.17,1.17,0,0,0-.92.87,1.09,1.09,0,0,0,.48,1.13l10.26,6.72-1.81,12a1.06,1.06,0,0,0,.54,1.08,1.12,1.12,0,0,0,1.24-.09l9.81-7.56,11.09,5.33a1.16,1.16,0,0,0,1.26-.18,1.06,1.06,0,0,0,.3-1.17l-4.31-11.39,8.68-8.74A1,1,0,0,0,271.57,131.83Z" transform="translate(0 -43.81)"/><path class="cls-4" d="M271.36,133l-8.68,8.74L267,153.17a1.06,1.06,0,0,1-.3,1.17,1.16,1.16,0,0,1-1.26.18l-11.09-5.33-3.07-28.74a1.1,1.1,0,0,1,1.06.5l5.77,10.76,12.41-.54a1.11,1.11,0,0,1,1.06.66A1,1,0,0,1,271.36,133Z" transform="translate(0 -43.81)"/><path class="cls-4" d="M260.56,136.67a1.13,1.13,0,0,0-1.06-.66l-4,.19-1.87-3.51a1.12,1.12,0,0,0-1.07-.5,1.07,1.07,0,0,0-1,.73l-1.09,3.82-4,.67a1.1,1.1,0,0,0-.89.86,1.07,1.07,0,0,0,.45,1.14l3.38,2.18-.6,3.91a1.12,1.12,0,0,0,.55,1.1,1.16,1.16,0,0,0,1.25-.08l3.21-2.48,3.6,1.75a1.12,1.12,0,0,0,1.23-.18,1.09,1.09,0,0,0,.3-1.19l-1.4-3.69,2.81-2.85A1.08,1.08,0,0,0,260.56,136.67Z" transform="translate(0 -43.81)"/><path class="cls-5" d="M260.33,137.88l-2.81,2.85,1.4,3.69a1.09,1.09,0,0,1-.3,1.19,1.12,1.12,0,0,1-1.23.18l-3.6-1.75-1.27-11.85a1.12,1.12,0,0,1,1.07.5l1.87,3.51,4-.19a1.13,1.13,0,0,1,1.06.66A1.08,1.08,0,0,1,260.33,137.88Z" transform="translate(0 -43.81)"/></g><g class="cls-2"><path class="cls-3" d="M327.91,87.54a1.1,1.1,0,0,0-1-.77l-12.39-.84L310,74.61a1.09,1.09,0,0,0-1-.62,1.12,1.12,0,0,0-1.08.61l-4.64,11.28L291,86.62a1.12,1.12,0,0,0-1,.76,1.08,1.08,0,0,0,.35,1.18l9.45,7.81-3.13,11.77a1.1,1.1,0,0,0,.42,1.14,1.14,1.14,0,0,0,1.25,0l10.58-6.43,10.43,6.52a1.17,1.17,0,0,0,1.27,0,1.06,1.06,0,0,0,.43-1.13l-3-11.8,9.6-7.73A1.05,1.05,0,0,0,327.91,87.54Z" transform="translate(0 -43.81)"/><path class="cls-4" d="M327.57,88.71,318,96.44l3,11.8a1.06,1.06,0,0,1-.43,1.13,1.17,1.17,0,0,1-1.27,0l-10.43-6.52L309,74a1.09,1.09,0,0,1,1,.62l4.55,11.32,12.39.84a1.1,1.1,0,0,1,1,.77A1.05,1.05,0,0,1,327.57,88.71Z" transform="translate(0 -43.81)"/><path class="cls-4" d="M316.43,91.13a1.14,1.14,0,0,0-1-.77l-4-.25-1.48-3.7a1.1,1.1,0,0,0-1-.61,1.05,1.05,0,0,0-1.08.6l-1.51,3.69-4,.22a1.12,1.12,0,0,0-1,.76,1.09,1.09,0,0,0,.33,1.18l3.11,2.54-1,3.82a1.11,1.11,0,0,0,1.67,1.21l3.47-2.11,3.38,2.14a1.14,1.14,0,0,0,1.25,0,1.11,1.11,0,0,0,.43-1.16l-1-3.82,3.11-2.52A1.09,1.09,0,0,0,316.43,91.13Z" transform="translate(0 -43.81)"/><path class="cls-5" d="M316.07,92.31,313,94.83l1,3.82a1.11,1.11,0,0,1-.43,1.16,1.14,1.14,0,0,1-1.25,0l-3.38-2.14.05-11.91a1.1,1.1,0,0,1,1,.61l1.48,3.7,4,.25a1.14,1.14,0,0,1,1,.77A1.09,1.09,0,0,1,316.07,92.31Z" transform="translate(0 -43.81)"/></g><g class="cls-2"><path class="cls-3" d="M225.17,53.25a1.09,1.09,0,0,0-1.24,0l-10,7.4L203.15,55a1.11,1.11,0,0,0-1.16.18,1.13,1.13,0,0,0-.42,1.16L205.36,68l-8.89,8.55a1.16,1.16,0,0,0-.28,1.23,1.08,1.08,0,0,0,1,.67l12.25-.19,5.26,11a1.1,1.1,0,0,0,1.06.59,1.12,1.12,0,0,0,1-.77l3.87-11.77,12.18-1.8a1.17,1.17,0,0,0,.94-.86,1.07,1.07,0,0,0-.41-1.14l-10-7,2.28-12.11A1,1,0,0,0,225.17,53.25Z" transform="translate(0 -43.81)"/><path class="cls-4" d="M225.68,54.36,223.4,66.47l10,7a1.07,1.07,0,0,1,.41,1.14,1.17,1.17,0,0,1-.94.86l-12.18,1.8L202,55.22a1.11,1.11,0,0,1,1.16-.18L214,60.7l10-7.4a1.09,1.09,0,0,1,1.24,0A1,1,0,0,1,225.68,54.36Z" transform="translate(0 -43.81)"/><path class="cls-4" d="M218.78,63.43a1.12,1.12,0,0,0-1.24,0l-3.24,2.43-3.52-1.86a1.1,1.1,0,0,0-1.16.19,1.05,1.05,0,0,0-.43,1.15l1.24,3.79L207.51,72a1.1,1.1,0,0,0,.76,1.9l4-.09,1.7,3.57a1.11,1.11,0,0,0,1.07.61,1.15,1.15,0,0,0,1-.78l1.27-3.85,4-.57a1.12,1.12,0,0,0,.92-.84,1.1,1.1,0,0,0-.42-1.16l-3.23-2.26.73-3.94A1.09,1.09,0,0,0,218.78,63.43Z" transform="translate(0 -43.81)"/><path class="cls-5" d="M219.27,64.56l-.73,3.94,3.23,2.26a1.1,1.1,0,0,1,.42,1.16,1.12,1.12,0,0,1-.92.84l-4,.57-7.69-9.09a1.08,1.08,0,0,1,1.16-.18l3.52,1.85,3.24-2.43a1.12,1.12,0,0,1,1.24,0A1.09,1.09,0,0,1,219.27,64.56Z" transform="translate(0 -43.81)"/></g><g class="cls-2"><path class="cls-3" d="M94.59,148a1.11,1.11,0,0,0-.87-.89l-12.17-2.46-3-11.83a1.1,1.1,0,0,0-.91-.74,1.12,1.12,0,0,0-1.15.46l-6.09,10.58-12.3-.9a1.15,1.15,0,0,0-1.1.62,1.1,1.1,0,0,0,.19,1.22l8.34,9-4.65,11.25a1.09,1.09,0,0,0,.27,1.19,1.14,1.14,0,0,0,1.23.21l11.33-5,9.49,7.84a1.14,1.14,0,0,0,1.26.13,1.07,1.07,0,0,0,.58-1.06l-1.45-12.1,10.53-6.4A1,1,0,0,0,94.59,148Z" transform="translate(0 -43.81)"/><path class="cls-4" d="M94.1,149.14l-10.53,6.4L85,167.64a1.07,1.07,0,0,1-.58,1.06,1.16,1.16,0,0,1-1.26-.13l-9.49-7.84,3.93-28.63a1.1,1.1,0,0,1,.91.74l3,11.83,12.17,2.46a1.11,1.11,0,0,1,.87.89A1,1,0,0,1,94.1,149.14Z" transform="translate(0 -43.81)"/><path class="cls-4" d="M82.74,150.07a1.12,1.12,0,0,0-.87-.89l-4-.78-1-3.86a1.09,1.09,0,0,0-.91-.74,1.05,1.05,0,0,0-1.14.46l-2,3.45-4-.31a1.12,1.12,0,0,0-1.07.62,1.1,1.1,0,0,0,.17,1.22l2.75,2.93-1.51,3.65a1.1,1.1,0,0,0,.26,1.2,1.12,1.12,0,0,0,1.23.21l3.71-1.62,3.08,2.55a1.12,1.12,0,0,0,1.24.13,1.11,1.11,0,0,0,.58-1.09l-.48-3.92,3.42-2.09A1.08,1.08,0,0,0,82.74,150.07Z" transform="translate(0 -43.81)"/><path class="cls-5" d="M82.23,151.19l-3.42,2.09.48,3.92a1.11,1.11,0,0,1-.58,1.09,1.12,1.12,0,0,1-1.24-.13l-3.08-2.55L76,143.8a1.09,1.09,0,0,1,.91.74l1,3.86,4,.78a1.12,1.12,0,0,1,.87.89A1.08,1.08,0,0,1,82.23,151.19Z" transform="translate(0 -43.81)"/></g><g class="cls-2"><path class="cls-3" d="M335.37,139.86a1.11,1.11,0,0,1,1.06-.66l12.41.54L354.61,129a1.1,1.1,0,0,1,1.06-.51,1.12,1.12,0,0,1,1,.73L360,140.93,372.2,143a1.17,1.17,0,0,1,.92.87,1.09,1.09,0,0,1-.48,1.13l-10.25,6.72,1.81,12a1.09,1.09,0,0,1-.55,1.08,1.12,1.12,0,0,1-1.24-.09l-9.81-7.56-11.09,5.33a1.16,1.16,0,0,1-1.26-.18,1.09,1.09,0,0,1-.3-1.17l4.31-11.39-8.68-8.74A1.05,1.05,0,0,1,335.37,139.86Z" transform="translate(0 -43.81)"/><path class="cls-4" d="M335.58,141.07l8.68,8.74L340,161.2a1.09,1.09,0,0,0,.3,1.17,1.16,1.16,0,0,0,1.26.18l11.09-5.33,3.07-28.74a1.1,1.1,0,0,0-1.06.51l-5.77,10.75-12.41-.54a1.11,1.11,0,0,0-1.06.66A1.05,1.05,0,0,0,335.58,141.07Z" transform="translate(0 -43.81)"/><path class="cls-4" d="M346.38,144.7a1.13,1.13,0,0,1,1.06-.66l4,.19,1.87-3.5a1.1,1.1,0,0,1,1.07-.51,1.06,1.06,0,0,1,1,.73l1.09,3.82,4,.67a1.14,1.14,0,0,1,.9.86,1.1,1.1,0,0,1-.46,1.14l-3.38,2.19.6,3.9a1.12,1.12,0,0,1-.55,1.11,1.14,1.14,0,0,1-1.24-.09l-3.22-2.48-3.59,1.75a1.13,1.13,0,0,1-1.24-.18,1.09,1.09,0,0,1-.3-1.19l1.4-3.69-2.81-2.85A1.09,1.09,0,0,1,346.38,144.7Z" transform="translate(0 -43.81)"/><path class="cls-5" d="M346.61,145.91l2.81,2.85-1.4,3.69a1.09,1.09,0,0,0,.3,1.19,1.13,1.13,0,0,0,1.24.18l3.59-1.75,1.27-11.85a1.08,1.08,0,0,0-1.06.51l-1.88,3.5-4-.18a1.11,1.11,0,0,0-1.06.65A1.09,1.09,0,0,0,346.61,145.91Z" transform="translate(0 -43.81)"/></g><g class="cls-2"><path class="cls-3" d="M409.48,112.57a1.1,1.1,0,0,1,1-.77l12.39-.84,4.55-11.32a1.1,1.1,0,0,1,1-.62,1.13,1.13,0,0,1,1.07.61l4.64,11.29,12.32.73a1.16,1.16,0,0,1,1,.76,1.1,1.1,0,0,1-.35,1.18l-9.45,7.81,3.12,11.77a1.07,1.07,0,0,1-.42,1.14,1.12,1.12,0,0,1-1.24.05l-10.58-6.44-10.44,6.53a1.17,1.17,0,0,1-1.27,0,1.08,1.08,0,0,1-.43-1.14l3-11.79-9.59-7.73A1,1,0,0,1,409.48,112.57Z" transform="translate(0 -43.81)"/><path class="cls-4" d="M409.82,113.75l9.59,7.73-3,11.79a1.08,1.08,0,0,0,.43,1.14,1.17,1.17,0,0,0,1.27,0l10.44-6.53L428.4,99a1.1,1.1,0,0,0-1,.62L422.85,111l-12.39.84a1.1,1.1,0,0,0-1,.77A1,1,0,0,0,409.82,113.75Z" transform="translate(0 -43.81)"/><path class="cls-4" d="M421,116.17a1.11,1.11,0,0,1,1-.77l4-.26,1.48-3.69a1.08,1.08,0,0,1,1-.62,1.06,1.06,0,0,1,1.07.61l1.51,3.68,4,.22a1.14,1.14,0,0,1,1,.76,1.06,1.06,0,0,1-.33,1.18l-3.11,2.55,1,3.81a1.1,1.1,0,0,1-.42,1.16,1.12,1.12,0,0,1-1.25,0l-3.46-2.1-3.39,2.13a1.14,1.14,0,0,1-1.25,0,1.11,1.11,0,0,1-.42-1.15l1-3.83-3.11-2.52A1.08,1.08,0,0,1,421,116.17Z" transform="translate(0 -43.81)"/><path class="cls-5" d="M421.31,117.34l3.11,2.52-1,3.83a1.11,1.11,0,0,0,.42,1.15,1.14,1.14,0,0,0,1.25,0l3.39-2.13-.05-11.92a1.08,1.08,0,0,0-1,.62L426,115.14l-4,.26a1.11,1.11,0,0,0-1,.77A1.08,1.08,0,0,0,421.31,117.34Z" transform="translate(0 -43.81)"/></g><g class="cls-2"><path class="cls-3" d="M407.06,47a1.09,1.09,0,0,1,1.24.05l10,7.4,10.81-5.66a1.11,1.11,0,0,1,1.16.18,1.13,1.13,0,0,1,.43,1.16l-3.8,11.6,8.9,8.55a1.15,1.15,0,0,1,.27,1.23,1.08,1.08,0,0,1-1,.67L422.75,72l-5.26,11a1.09,1.09,0,0,1-1.06.59,1.11,1.11,0,0,1-1-.77L411.58,71l-12.17-1.8a1.18,1.18,0,0,1-1-.86,1.09,1.09,0,0,1,.41-1.14l10-7-2.29-12.11A1,1,0,0,1,407.06,47Z" transform="translate(0 -43.81)"/><path class="cls-4" d="M406.55,48.09l2.29,12.11-10,7a1.09,1.09,0,0,0-.41,1.14,1.18,1.18,0,0,0,1,.86L411.58,71,430.24,49a1.11,1.11,0,0,0-1.16-.18l-10.81,5.66-10-7.4a1.09,1.09,0,0,0-1.24-.05A1,1,0,0,0,406.55,48.09Z" transform="translate(0 -43.81)"/><path class="cls-4" d="M413.45,57.16a1.14,1.14,0,0,1,1.25.05l3.23,2.43,3.53-1.85a1.09,1.09,0,0,1,1.16.18,1.05,1.05,0,0,1,.42,1.16l-1.24,3.78,2.93,2.79a1.11,1.11,0,0,1,.25,1.21,1.08,1.08,0,0,1-1,.69l-4-.09-1.7,3.57a1.12,1.12,0,0,1-1.07.61,1.16,1.16,0,0,1-1-.78l-1.27-3.85-4-.57a1.12,1.12,0,0,1-.92-.84,1.13,1.13,0,0,1,.42-1.16l3.24-2.26L413,58.29A1.09,1.09,0,0,1,413.45,57.16Z" transform="translate(0 -43.81)"/><path class="cls-5" d="M413,58.29l.74,3.94-3.24,2.26a1.13,1.13,0,0,0-.42,1.16,1.12,1.12,0,0,0,.92.84l4,.58,7.7-9.1a1.09,1.09,0,0,0-1.16-.18l-3.53,1.85-3.23-2.43a1.14,1.14,0,0,0-1.25-.05A1.09,1.09,0,0,0,413,58.29Z" transform="translate(0 -43.81)"/></g></svg>